<svg width="155" height="44" viewBox="0 0 155 44" fill="none" xmlns="http://www.w3.org/2000/svg">
    <path d="M21.8608 21.7412H21.0259V24H19.4834V17.6016H22.0015C22.7603 17.6016 23.3535 17.77 23.7812 18.1069C24.209 18.4438 24.4229 18.9199 24.4229 19.5352C24.4229 19.9805 24.332 20.3496 24.1504 20.6426C23.9717 20.9355 23.6904 21.1729 23.3066 21.3545L24.6426 23.9341V24H22.9902L21.8608 21.7412ZM21.0259 20.5503H22.0015C22.2944 20.5503 22.5142 20.4741 22.6606 20.3218C22.8101 20.1665 22.8848 19.9512 22.8848 19.6758C22.8848 19.4004 22.8101 19.1851 22.6606 19.0298C22.5112 18.8716 22.2915 18.7925 22.0015 18.7925H21.0259V20.5503Z"
          fill="#1F4A5D"/>
    <circle cx="21.5" cy="20.5" r="14.5" stroke="#1F4A5E" stroke-width="2"/>
    <line x1="21.5" y1="2.78163e-08" x2="21.5" y2="11" stroke="#1F4A5D"/>
    <line x1="41" y1="20.5" x2="30" y2="20.5" stroke="#1F4A5D"/>
    <line x1="21.5" y1="30" x2="21.5" y2="41" stroke="#1F4A5D"/>
    <line x1="11" y1="20.5" x2="-4.9672e-08" y2="20.5" stroke="#1F4A5D"/>
    <rect x="16" y="11" width="137" height="20" fill="white"/>
    <path d="M146.995 6.99316L146.568 8.47412H146.204L145.777 6.97998V8.47412H145.131V6.08789H145.922L146.388 7.66113L146.902 6.08789H147.641V8.47412H146.995V6.99316ZM144.841 6.59766H144.31V8.45654H143.571V6.59766H143V6.08789H144.841V6.59766Z"
          fill="#408FB1"/>
    <path d="M153.063 9.86719C153.063 10.3125 152.935 10.6538 152.677 10.8911C152.422 11.1284 152.06 11.2471 151.591 11.2471C151.123 11.2471 150.749 11.0918 150.471 10.7812C150.195 10.4678 150.058 10.0474 150.058 9.52002V9.02344C150.058 8.51367 150.197 8.10352 150.475 7.79297C150.756 7.47949 151.128 7.32275 151.591 7.32275C152.069 7.32275 152.434 7.44434 152.686 7.6875C152.94 7.92773 153.068 8.26611 153.068 8.70264H152.382C152.382 8.42139 152.315 8.2207 152.18 8.10059C152.045 7.97754 151.849 7.91602 151.591 7.91602C151.322 7.91602 151.112 8.01562 150.963 8.21484C150.816 8.41113 150.742 8.6748 150.739 9.00586V9.54639C150.739 9.88916 150.813 10.1602 150.963 10.3594C151.112 10.5557 151.322 10.6538 151.591 10.6538C151.852 10.6538 152.048 10.5952 152.18 10.478C152.312 10.3579 152.378 10.1543 152.378 9.86719H153.063ZM149.069 9.28271C149.069 9.76611 149.177 10.2173 149.394 10.6362C149.614 11.0552 149.924 11.3921 150.326 11.647C150.727 11.8989 151.169 12.0249 151.653 12.0249C152.133 12.0249 152.573 11.8989 152.971 11.647C153.373 11.395 153.683 11.0596 153.903 10.6406C154.123 10.2217 154.232 9.76904 154.232 9.28271C154.232 8.79639 154.123 8.34521 153.903 7.9292C153.683 7.51025 153.373 7.17627 152.971 6.92725C152.57 6.67529 152.13 6.54932 151.653 6.54932C151.187 6.54932 150.753 6.66943 150.352 6.90967C149.954 7.1499 149.64 7.48096 149.412 7.90283C149.183 8.32471 149.069 8.78467 149.069 9.28271ZM148.533 9.28271C148.533 8.69092 148.669 8.1416 148.941 7.63477C149.217 7.12793 149.596 6.72949 150.08 6.43945C150.566 6.14648 151.09 6 151.653 6C152.215 6 152.738 6.14648 153.222 6.43945C153.708 6.72949 154.087 7.12793 154.36 7.63477C154.635 8.1416 154.773 8.69092 154.773 9.28271C154.773 9.88037 154.634 10.4341 154.355 10.9438C154.077 11.4507 153.696 11.8491 153.213 12.1392C152.732 12.4292 152.212 12.5742 151.653 12.5742C151.087 12.5742 150.563 12.4277 150.08 12.1348C149.599 11.8418 149.221 11.4419 148.946 10.9351C148.67 10.4282 148.533 9.87744 148.533 9.28271Z"
          fill="#408FB1"/>
    <path d="M23.424 22.4762H21.8703V27.7399H19V12.8295H23.6857C25.0977 12.8295 26.2016 13.2221 26.9976 14.0072C27.7935 14.7923 28.1915 15.9017 28.1915 17.3354C28.1915 18.3731 28.0225 19.2333 27.6845 19.916C27.3519 20.5987 26.8286 21.1517 26.1144 21.575L28.6004 27.5863V27.7399H25.5256L23.424 22.4762ZM21.8703 19.701H23.6857C24.2309 19.701 24.6397 19.5235 24.9123 19.1685C25.1904 18.8066 25.3294 18.3048 25.3294 17.6631C25.3294 17.0213 25.1904 16.5195 24.9123 16.1577C24.6343 15.789 24.2254 15.6047 23.6857 15.6047H21.8703V19.701Z"
          fill="#408FB1"/>
    <path d="M34.0793 27.9447C32.7218 27.9447 31.6233 27.4395 30.7838 26.4291C29.9442 25.4118 29.5244 24.0908 29.5244 22.4659V22.1792C29.5244 21.0459 29.6907 20.0457 30.0233 19.1787C30.3613 18.3117 30.8519 17.6426 31.4952 17.1715C32.1385 16.6936 32.9017 16.4547 33.7849 16.4547C35.0279 16.4547 36.0092 16.9394 36.7288 17.9089C37.4484 18.8715 37.8082 20.2164 37.8082 21.9437V23.2852H32.3293C32.4274 23.9065 32.6428 24.3946 32.9753 24.7496C33.3079 25.1046 33.7386 25.2821 34.2674 25.2821C35.1397 25.2821 35.8211 24.8998 36.3118 24.1352L37.5711 25.999C37.2276 26.5929 36.7397 27.0674 36.1073 27.4224C35.4804 27.7706 34.8044 27.9447 34.0793 27.9447ZM33.7686 19.1173C32.9617 19.1173 32.482 19.7863 32.3293 21.1244H35.1097V20.8582C35.1206 20.3052 35.0088 19.8785 34.7744 19.5781C34.54 19.2709 34.2047 19.1173 33.7686 19.1173Z"
          fill="#408FB1"/>
    <path d="M47.1388 22.2816C47.1388 24.002 46.828 25.3777 46.2065 26.4086C45.5905 27.4327 44.7564 27.9447 43.7042 27.9447C42.8919 27.9447 42.2241 27.5726 41.7007 26.8285V32H38.9449V16.6595H41.5208L41.6026 17.6836C42.1314 16.8643 42.8265 16.4547 43.6879 16.4547C44.7782 16.4547 45.6259 16.9599 46.2311 17.9703C46.8362 18.9739 47.1388 20.3564 47.1388 22.1178V22.2816ZM44.3829 22.0666C44.3829 20.1004 43.925 19.1173 43.0091 19.1173C42.3549 19.1173 41.9188 19.4108 41.7007 19.998V24.3605C41.9406 24.9749 42.3822 25.2821 43.0255 25.2821C43.9032 25.2821 44.3557 24.3332 44.3829 22.4352V22.0666Z"
          fill="#408FB1"/>
    <path d="M48.0138 22.0973C48.0138 20.9913 48.1855 20.0082 48.5289 19.148C48.8724 18.2809 49.3658 17.6153 50.0091 17.151C50.6524 16.6868 51.4074 16.4547 52.2742 16.4547C53.599 16.4547 54.643 16.9701 55.4062 18.001C56.1694 19.0251 56.5511 20.4212 56.5511 22.1895V22.3123C56.5511 24.0396 56.1667 25.4118 55.398 26.4291C54.6348 27.4395 53.599 27.9447 52.2906 27.9447C51.0313 27.9447 50.02 27.4736 49.2567 26.5315C48.4935 25.5825 48.0819 24.299 48.0219 22.681L48.0138 22.0973ZM50.7696 22.3123C50.7696 23.3364 50.8977 24.0874 51.1539 24.5653C51.4101 25.0432 51.789 25.2821 52.2906 25.2821C53.2719 25.2821 53.7734 24.3366 53.7952 22.4455V22.0973C53.7952 20.1106 53.2882 19.1173 52.2742 19.1173C51.3529 19.1173 50.8541 19.9741 50.7778 21.6877L50.7696 22.3123Z"
          fill="#408FB1"/>
    <path d="M67.239 15.6047H63.6655V27.7399H60.7952V15.6047H57.287V12.8295H67.239V15.6047Z" fill="#408FB1"/>
    <path d="M73.1432 19.7829L72.2355 19.701C71.3687 19.701 70.8126 20.0423 70.5673 20.725V27.7399H67.8115V16.6595H70.3956L70.4855 18.0829C70.9489 16.9974 71.5949 16.4547 72.4236 16.4547C72.718 16.4547 72.9742 16.4956 73.1923 16.5776L73.1432 19.7829Z"
          fill="#408FB1"/>
    <path d="M78.8756 27.7399C78.7775 27.5146 78.6903 27.1835 78.6139 26.7465C78.1069 27.5453 77.3982 27.9447 76.4878 27.9447C75.6537 27.9447 74.945 27.6307 74.3616 27.0026C73.7783 26.3676 73.4867 25.5723 73.4867 24.6165C73.4867 23.4149 73.841 22.5069 74.5497 21.8925C75.2584 21.278 76.2888 20.9708 77.6408 20.9708H78.4913V20.3871C78.4913 19.3699 78.1397 18.8612 77.4364 18.8612C76.7822 18.8612 76.4551 19.264 76.4551 20.0696H73.6993C73.6993 18.9978 74.0618 18.1273 74.7869 17.4583C75.5174 16.7892 76.4469 16.4547 77.5754 16.4547C78.7039 16.4547 79.5952 16.7995 80.2494 17.489C80.9036 18.1785 81.2389 19.1241 81.2553 20.3257V25.2309C81.2662 26.2482 81.3916 27.0265 81.6314 27.5658V27.7399H78.8756ZM77.1502 25.4869C77.4936 25.4869 77.7771 25.3948 78.0006 25.2104C78.2296 25.0261 78.3932 24.8179 78.4913 24.5858V22.8141H77.6899C76.7304 22.8141 76.2507 23.3535 76.2507 24.4322C76.2507 24.7462 76.3352 25.0022 76.5042 25.2002C76.6732 25.3914 76.8885 25.4869 77.1502 25.4869Z"
          fill="#408FB1"/>
    <path d="M86.5298 25.2821C86.9168 25.2821 87.2167 25.1524 87.4293 24.893C87.6419 24.6267 87.7455 24.2581 87.74 23.787H90.3241C90.3241 25.0022 89.9752 25.999 89.2774 26.7773C88.585 27.5556 87.691 27.9447 86.5952 27.9447C85.3086 27.9447 84.2946 27.4395 83.5532 26.4291C82.8117 25.4187 82.441 24.0191 82.441 22.2304V22.087C82.441 20.9674 82.6046 19.9809 82.9317 19.1275C83.2642 18.2673 83.7412 17.6085 84.3627 17.151C84.9842 16.6868 85.7202 16.4547 86.5707 16.4547C87.721 16.4547 88.6341 16.8541 89.3101 17.6528C89.9861 18.4516 90.3241 19.5337 90.3241 20.8991H87.74C87.74 20.3257 87.6283 19.8853 87.4048 19.5781C87.1812 19.2709 86.8814 19.1173 86.5052 19.1173C85.7911 19.1173 85.374 19.6873 85.2541 20.8274C85.2159 21.1893 85.1968 21.6877 85.1968 22.3226C85.1968 23.4354 85.3031 24.2069 85.5158 24.637C85.7284 25.0671 86.0664 25.2821 86.5298 25.2821Z"
          fill="#408FB1"/>
    <path d="M95.0425 23.6129L94.2657 24.5858V27.7399H91.5099V12H94.2657V20.3564L94.5437 19.8955L96.6208 16.6595H99.9245L96.8252 21.2166L100.129 27.7399H96.9724L95.0425 23.6129Z"
          fill="#408FB1"/>
    <path d="M104.766 27.9447C103.408 27.9447 102.31 27.4395 101.47 26.4291C100.63 25.4118 100.211 24.0908 100.211 22.4659V22.1792C100.211 21.0459 100.377 20.0457 100.71 19.1787C101.048 18.3117 101.538 17.6426 102.181 17.1715C102.825 16.6936 103.588 16.4547 104.471 16.4547C105.714 16.4547 106.695 16.9394 107.415 17.9089C108.135 18.8715 108.495 20.2164 108.495 21.9437V23.2852H103.016C103.114 23.9065 103.329 24.3946 103.662 24.7496C103.994 25.1046 104.425 25.2821 104.954 25.2821C105.826 25.2821 106.507 24.8998 106.998 24.1352L108.257 25.999C107.914 26.5929 107.426 27.0674 106.794 27.4224C106.167 27.7706 105.491 27.9447 104.766 27.9447ZM104.455 19.1173C103.648 19.1173 103.168 19.7863 103.016 21.1244H105.796V20.8582C105.807 20.3052 105.695 19.8785 105.461 19.5781C105.226 19.2709 104.891 19.1173 104.455 19.1173Z"
          fill="#408FB1"/>
    <path d="M114.963 19.7829L114.055 19.701C113.188 19.701 112.632 20.0423 112.387 20.725V27.7399H109.631V16.6595H112.215L112.305 18.0829C112.769 16.9974 113.415 16.4547 114.243 16.4547C114.538 16.4547 114.794 16.4956 115.012 16.5776L114.963 19.7829Z"
          fill="#408FB1"/>
    <path d="M118.954 22.681V27.7399H116.083V12.8295H120.834C121.745 12.8295 122.549 13.0411 123.247 13.4644C123.95 13.8809 124.492 14.4782 124.874 15.2565C125.261 16.028 125.455 16.9053 125.455 17.8884C125.455 19.3425 125.038 20.5066 124.203 21.3804C123.375 22.2475 122.235 22.681 120.785 22.681H118.954ZM118.954 19.9058H120.834C121.39 19.9058 121.813 19.7317 122.102 19.3835C122.396 19.0353 122.543 18.5438 122.543 17.9089C122.543 17.2125 122.394 16.6561 122.094 16.2396C121.794 15.8232 121.385 15.6115 120.867 15.6047H118.954V19.9058Z"
          fill="#408FB1"/>
    <path d="M131.416 22.4762H129.862V27.7399H126.992V12.8295H131.678C133.09 12.8295 134.194 13.2221 134.99 14.0072C135.786 14.7923 136.184 15.9017 136.184 17.3354C136.184 18.3731 136.015 19.2333 135.677 19.916C135.344 20.5987 134.821 21.1517 134.106 21.575L136.592 27.5863V27.7399H133.518L131.416 22.4762ZM129.862 19.701H131.678C132.223 19.701 132.632 19.5235 132.904 19.1685C133.182 18.8066 133.321 18.3048 133.321 17.6631C133.321 17.0213 133.182 16.5195 132.904 16.1577C132.626 15.789 132.217 15.6047 131.678 15.6047H129.862V19.701Z"
          fill="#408FB1"/>
    <path d="M148 20.5919C148 22.0461 147.785 23.333 147.354 24.4526C146.923 25.5723 146.31 26.4359 145.514 27.0435C144.724 27.6443 143.821 27.9447 142.807 27.9447C141.793 27.9447 140.894 27.6545 140.109 27.0742C139.324 26.4871 138.71 25.6508 138.269 24.5653C137.833 23.4798 137.604 22.2338 137.582 20.8274V19.9877C137.582 18.5267 137.794 17.2398 138.22 16.127C138.65 15.0073 139.264 14.1437 140.06 13.5361C140.861 12.9285 141.771 12.6247 142.791 12.6247C143.799 12.6247 144.699 12.9251 145.49 13.5259C146.28 14.1266 146.893 14.9834 147.329 16.0963C147.771 17.2023 147.995 18.4721 148 19.9058V20.5919ZM145.081 19.9672C145.081 18.4857 144.882 17.3627 144.484 16.5981C144.091 15.8266 143.527 15.4409 142.791 15.4409C141.352 15.4409 140.591 16.7926 140.509 19.4962L140.501 20.5919C140.501 22.0529 140.695 23.176 141.082 23.9611C141.469 24.7462 142.044 25.1388 142.807 25.1388C143.532 25.1388 144.091 24.753 144.484 23.9816C144.876 23.2101 145.075 22.1007 145.081 20.6534V19.9672Z"
          fill="#408FB1"/>
    <path d="M71.957 38.5898H69.8008V39.9453H72.3477V41H68.4297V35.3125H72.3555V36.3711H69.8008V37.5703H71.957V38.5898ZM74.5586 37.9375L75.1719 36.7734H76.5391L75.4258 38.832L76.5938 41H75.2188L74.5547 39.75L73.9023 41H72.5195L73.6914 38.832L72.582 36.7734H73.9648L74.5586 37.9375ZM78.4961 35.7227V36.7734H79.1914V37.6875H78.4961V39.6211C78.4961 39.7799 78.5247 39.8906 78.582 39.9531C78.6393 40.0156 78.7526 40.0469 78.9219 40.0469C79.0521 40.0469 79.1615 40.0391 79.25 40.0234V40.9648C79.013 41.0404 78.7656 41.0781 78.5078 41.0781C78.0547 41.0781 77.7201 40.9714 77.5039 40.7578C77.2878 40.5443 77.1797 40.2201 77.1797 39.7852V37.6875H76.6406V36.7734H77.1797V35.7227H78.4961ZM81.7578 41.0781C81.1094 41.0781 80.5846 40.8854 80.1836 40.5C79.7826 40.112 79.582 39.6081 79.582 38.9883V38.8789C79.582 38.4466 79.6615 38.0651 79.8203 37.7344C79.9818 37.4036 80.2161 37.1484 80.5234 36.9688C80.8307 36.7865 81.1953 36.6953 81.6172 36.6953C82.2109 36.6953 82.6797 36.8802 83.0234 37.25C83.3672 37.6172 83.5391 38.1302 83.5391 38.7891V39.3008H80.9219C80.9688 39.5378 81.0716 39.724 81.2305 39.8594C81.3893 39.9948 81.5951 40.0625 81.8477 40.0625C82.2643 40.0625 82.5898 39.9167 82.8242 39.625L83.4258 40.3359C83.2617 40.5625 83.0286 40.7435 82.7266 40.8789C82.4271 41.0117 82.1042 41.0781 81.7578 41.0781ZM81.6094 37.7109C81.224 37.7109 80.9948 37.9661 80.9219 38.4766H82.25V38.375C82.2552 38.1641 82.2018 38.0013 82.0898 37.8867C81.9779 37.7695 81.8177 37.7109 81.6094 37.7109ZM85.2812 36.7734L85.3242 37.2695C85.6159 36.8867 86.0182 36.6953 86.5312 36.6953C86.9714 36.6953 87.2995 36.8268 87.5156 37.0898C87.7344 37.3529 87.8477 37.7487 87.8555 38.2773V41H86.5352V38.332C86.5352 38.1185 86.4922 37.9622 86.4062 37.8633C86.3203 37.7617 86.1641 37.7109 85.9375 37.7109C85.6797 37.7109 85.4883 37.8125 85.3633 38.0156V41H84.0469V36.7734H85.2812ZM88.4219 38.8555C88.4219 38.1862 88.5664 37.6589 88.8555 37.2734C89.1445 36.888 89.5482 36.6953 90.0664 36.6953C90.444 36.6953 90.7617 36.8438 91.0195 37.1406V35H92.3398V41H91.1562L91.0898 40.5469C90.819 40.901 90.4753 41.0781 90.0586 41.0781C89.556 41.0781 89.1576 40.8854 88.8633 40.5C88.569 40.1146 88.4219 39.5664 88.4219 38.8555ZM89.7383 38.9375C89.7383 39.6875 89.957 40.0625 90.3945 40.0625C90.6862 40.0625 90.8945 39.9401 91.0195 39.6953V38.0859C90.8997 37.8359 90.694 37.7109 90.4023 37.7109C89.9961 37.7109 89.776 38.0391 89.7422 38.6953L89.7383 38.9375ZM95.1328 41.0781C94.4844 41.0781 93.9596 40.8854 93.5586 40.5C93.1576 40.112 92.957 39.6081 92.957 38.9883V38.8789C92.957 38.4466 93.0365 38.0651 93.1953 37.7344C93.3568 37.4036 93.5911 37.1484 93.8984 36.9688C94.2057 36.7865 94.5703 36.6953 94.9922 36.6953C95.5859 36.6953 96.0547 36.8802 96.3984 37.25C96.7422 37.6172 96.9141 38.1302 96.9141 38.7891V39.3008H94.2969C94.3438 39.5378 94.4466 39.724 94.6055 39.8594C94.7643 39.9948 94.9701 40.0625 95.2227 40.0625C95.6393 40.0625 95.9648 39.9167 96.1992 39.625L96.8008 40.3359C96.6367 40.5625 96.4036 40.7435 96.1016 40.8789C95.8021 41.0117 95.4792 41.0781 95.1328 41.0781ZM94.9844 37.7109C94.599 37.7109 94.3698 37.9661 94.2969 38.4766H95.625V38.375C95.6302 38.1641 95.5768 38.0013 95.4648 37.8867C95.3529 37.7695 95.1927 37.7109 94.9844 37.7109ZM97.2812 38.8555C97.2812 38.1862 97.4258 37.6589 97.7148 37.2734C98.0039 36.888 98.4076 36.6953 98.9258 36.6953C99.3034 36.6953 99.6211 36.8438 99.8789 37.1406V35H101.199V41H100.016L99.9492 40.5469C99.6784 40.901 99.3346 41.0781 98.918 41.0781C98.4154 41.0781 98.0169 40.8854 97.7227 40.5C97.4284 40.1146 97.2812 39.5664 97.2812 38.8555ZM98.5977 38.9375C98.5977 39.6875 98.8164 40.0625 99.2539 40.0625C99.5456 40.0625 99.7539 39.9401 99.8789 39.6953V38.0859C99.7591 37.8359 99.5534 37.7109 99.2617 37.7109C98.8555 37.7109 98.6354 38.0391 98.6016 38.6953L98.5977 38.9375ZM105.801 35.3125L107.07 39.2695L108.336 35.3125H110.141V41H108.766V39.6719L108.898 36.9531L107.523 41H106.617L105.238 36.9492L105.371 39.6719V41H104V35.3125H105.801ZM114.316 39.9375H112.438L112.109 41H110.645L112.73 35.3125H114.02L116.121 41H114.648L114.316 39.9375ZM112.766 38.8789H113.988L113.375 36.9062L112.766 38.8789ZM118.66 37.2031L119.59 35.3125H121.156L119.566 38.1328L121.199 41H119.617L118.66 39.0742L117.703 41H116.125L117.754 38.1328L116.168 35.3125H117.73L118.66 37.2031ZM127.168 38.5898H125.012V39.9453H127.559V41H123.641V35.3125H127.566V36.3711H125.012V37.5703H127.168V38.5898ZM127.812 38.8555C127.812 38.1862 127.957 37.6589 128.246 37.2734C128.535 36.888 128.939 36.6953 129.457 36.6953C129.835 36.6953 130.152 36.8438 130.41 37.1406V35H131.73V41H130.547L130.48 40.5469C130.21 40.901 129.866 41.0781 129.449 41.0781C128.947 41.0781 128.548 40.8854 128.254 40.5C127.96 40.1146 127.812 39.5664 127.812 38.8555ZM129.129 38.9375C129.129 39.6875 129.348 40.0625 129.785 40.0625C130.077 40.0625 130.285 39.9401 130.41 39.6953V38.0859C130.29 37.8359 130.085 37.7109 129.793 37.7109C129.387 37.7109 129.167 38.0391 129.133 38.6953L129.129 38.9375ZM133.867 41H132.547V36.7734H133.867V41ZM132.469 35.6836C132.469 35.4961 132.536 35.3424 132.672 35.2227C132.807 35.1029 132.983 35.043 133.199 35.043C133.415 35.043 133.591 35.1029 133.727 35.2227C133.862 35.3424 133.93 35.4961 133.93 35.6836C133.93 35.8711 133.862 36.0247 133.727 36.1445C133.591 36.2643 133.415 36.3242 133.199 36.3242C132.983 36.3242 132.807 36.2643 132.672 36.1445C132.536 36.0247 132.469 35.8711 132.469 35.6836ZM136.215 35.7227V36.7734H136.91V37.6875H136.215V39.6211C136.215 39.7799 136.243 39.8906 136.301 39.9531C136.358 40.0156 136.471 40.0469 136.641 40.0469C136.771 40.0469 136.88 40.0391 136.969 40.0234V40.9648C136.732 41.0404 136.484 41.0781 136.227 41.0781C135.773 41.0781 135.439 40.9714 135.223 40.7578C135.007 40.5443 134.898 40.2201 134.898 39.7852V37.6875H134.359V36.7734H134.898V35.7227H136.215ZM138.82 41H137.5V36.7734H138.82V41ZM137.422 35.6836C137.422 35.4961 137.49 35.3424 137.625 35.2227C137.76 35.1029 137.936 35.043 138.152 35.043C138.368 35.043 138.544 35.1029 138.68 35.2227C138.815 35.3424 138.883 35.4961 138.883 35.6836C138.883 35.8711 138.815 36.0247 138.68 36.1445C138.544 36.2643 138.368 36.3242 138.152 36.3242C137.936 36.3242 137.76 36.2643 137.625 36.1445C137.49 36.0247 137.422 35.8711 137.422 35.6836ZM139.469 38.8477C139.469 38.4258 139.551 38.0508 139.715 37.7227C139.879 37.3919 140.115 37.138 140.422 36.9609C140.729 36.7839 141.09 36.6953 141.504 36.6953C142.137 36.6953 142.635 36.8919 143 37.2852C143.365 37.6758 143.547 38.2083 143.547 38.8828V38.9297C143.547 39.5885 143.363 40.112 142.996 40.5C142.632 40.8854 142.137 41.0781 141.512 41.0781C140.91 41.0781 140.427 40.8984 140.062 40.5391C139.698 40.1771 139.501 39.6875 139.473 39.0703L139.469 38.8477ZM140.785 38.9297C140.785 39.3203 140.846 39.6068 140.969 39.7891C141.091 39.9714 141.272 40.0625 141.512 40.0625C141.98 40.0625 142.22 39.7018 142.23 38.9805V38.8477C142.23 38.0898 141.988 37.7109 141.504 37.7109C141.064 37.7109 140.826 38.0378 140.789 38.6914L140.785 38.9297ZM145.336 36.7734L145.379 37.2695C145.671 36.8867 146.073 36.6953 146.586 36.6953C147.026 36.6953 147.354 36.8268 147.57 37.0898C147.789 37.3529 147.902 37.7487 147.91 38.2773V41H146.59V38.332C146.59 38.1185 146.547 37.9622 146.461 37.8633C146.375 37.7617 146.219 37.7109 145.992 37.7109C145.734 37.7109 145.543 37.8125 145.418 38.0156V41H144.102V36.7734H145.336Z"
          fill="#3E486B"/>
    <path d="M47 31.5H148" stroke="#8591BA" stroke-opacity="0.75"/>
</svg>
